<?xml version="1.0" encoding="utf-8"?>
<!-- Generator: Adobe Illustrator 19.2.1, SVG Export Plug-In . SVG Version: 6.00 Build 0)  -->
<svg version="1.1" id="Camada_1" xmlns="http://www.w3.org/2000/svg" xmlns:xlink="http://www.w3.org/1999/xlink" x="0px" y="0px"
	 viewBox="0 0 146.3 130.1" style="enable-background:new 0 0 146.3 130.1;" xml:space="preserve">
<style type="text/css">
	.st0{fill:rgba(250, 234, 89, 0.5);}
	.st1{fill:#faea59;}
</style>
<g>
	<path class="st0" d="M144.8,111.4c-0.1-0.1-0.1-0.3-0.2-0.4L84.2,6.4c-2.3-4-6.4-6.4-11-6.4c-4.6,0-8.7,2.4-11.1,6.4L1.7,111
		c-0.1,0.1-0.1,0.3-0.2,0.4c-1.4,2.6-1.8,5.4-1.3,8.1c0.3,1.5,0.8,2.9,1.5,4.2c2.3,4,6.4,6.4,11,6.4h120.8c4.6,0,8.7-2.4,11.1-6.4
		c0.8-1.4,1.3-2.8,1.5-4.3C146.6,116.8,146.2,113.9,144.8,111.4z"/>
	<g>
		<path class="st1" d="M144.6,111L84.2,6.4c-2.3-4-6.4-6.4-11-6.4s-8.7,2.4-11.1,6.4L1.7,111c-0.1,0.1-0.1,0.3-0.2,0.4
			c-1.4,2.6-1.8,5.4-1.3,8.1c0.3,1.5,0.8,2.9,1.5,4.2c2.3,4,6.4,6.4,11,6.4h120.8c4.6,0,8.7-2.4,11.1-6.4c0.8-1.4,1.3-2.8,1.5-4.3
			c0.5-2.7,0-5.6-1.3-8.1C144.8,111.3,144.7,111.1,144.6,111z M67,9.2c1.3-2.2,3.6-3.5,6.1-3.5c2.6,0,4.8,1.3,6.1,3.5l53.3,92.4
			c-0.5,0.4-1.1,0.7-1.8,0.7c-1.4,0-2.6-1.2-2.6-2.6c0-1.4-1.2-2.6-2.6-2.6c-1.4,0-2.6,1.2-2.6,2.6c0,1.5-1.2,2.6-2.6,2.6
			c-1.4,0-2.6-1.2-2.6-2.6c0-1.4-1.2-2.6-2.6-2.6c-1.4,0-2.6,1.2-2.6,2.6c0,1.5-1.2,2.6-2.6,2.6c-1.4,0-2.6-1.2-2.6-2.6
			c0-1.4-1.2-2.6-2.6-2.6c-1.4,0-2.6,1.2-2.6,2.6c0,1.5-1.2,2.6-2.6,2.6c-1.4,0-2.6-1.2-2.6-2.6c0-1.4-1.2-2.6-2.6-2.6
			s-2.6,1.2-2.6,2.6c0,1.5-1.2,2.6-2.6,2.6c-1.4,0-2.6-1.2-2.6-2.6c0-1.4-1.2-2.6-2.6-2.6c-1.5,0-2.6,1.2-2.6,2.6
			c0,1.5-1.2,2.6-2.6,2.6c-1.4,0-2.6-1.2-2.6-2.6c0-1.4-1.2-2.6-2.6-2.6c-1.5,0-2.6,1.2-2.6,2.6c0,1.5-1.2,2.6-2.6,2.6
			c-1.5,0-2.6-1.2-2.6-2.6c0-1.4-1.2-2.6-2.6-2.6c-1.4,0-2.6,1.2-2.6,2.6c0,1.5-1.2,2.6-2.6,2.6c-1.5,0-2.6-1.2-2.6-2.6
			c0-1.4-1.2-2.6-2.6-2.6c-1.5,0-2.6,1.2-2.6,2.6c0,1.5-1.2,2.6-2.6,2.6c-1.5,0-2.6-1.2-2.6-2.6c0-1.4-1.2-2.6-2.6-2.6
			c-1.5,0-2.6,1.2-2.6,2.6c0,1.5-1.2,2.6-2.6,2.6c-1.5,0-2.6-1.2-2.6-2.6c0-1.4-1.2-2.6-2.6-2.6c-1.5,0-2.6,1.2-2.6,2.6
			c0,1.5-1.2,2.6-2.6,2.6c-1.4,0-2.6-1.2-2.6-2.6c0-1.4-1.2-2.6-2.6-2.6c-1.4,0-2.6,1.2-2.6,2.6c0,1.5-1.2,2.6-2.6,2.6
			c-0.7,0-1.3-0.3-1.8-0.7L67,9.2z M6.6,113.8l4.4-7.7h0c1.3,0.9,2.8,1.4,4.4,1.4c2,0,3.9-0.8,5.3-2c1.4,1.3,3.2,2,5.3,2
			c2,0,3.8-0.8,5.2-2c1.4,1.3,3.2,2,5.3,2c2,0,3.8-0.8,5.2-2c1.4,1.3,3.2,2,5.3,2c2,0,3.8-0.8,5.2-2c1.4,1.3,3.2,2,5.3,2
			s3.8-0.8,5.2-2c1.4,1.3,3.2,2,5.3,2s3.8-0.8,5.3-2c1.4,1.3,3.2,2,5.2,2s3.8-0.8,5.3-2c1.4,1.3,3.2,2,5.2,2c2,0,3.8-0.8,5.3-2
			c1.4,1.3,3.2,2,5.2,2c2,0,3.9-0.8,5.3-2c1.4,1.3,3.2,2,5.2,2c2,0,3.9-0.8,5.3-2c1.4,1.3,3.2,2,5.3,2c2,0,3.8-0.8,5.2-2
			c1.4,1.3,3.2,2,5.3,2c1.6,0,3.1-0.5,4.4-1.4h0l4.4,7.7c0.3,0.6,0.6,1.3,0.8,1.9c-0.3-0.1-0.5-0.2-0.8-0.4
			c-0.2-0.1-0.3-0.3-0.4-0.4c0,0,0,0,0,0c-0.1-0.1-0.1-0.2-0.2-0.3c-0.1-0.1-0.1-0.2-0.1-0.3c0-0.1-0.1-0.2-0.1-0.3c0,0,0,0,0-0.1
			c0-0.2-0.1-0.4-0.1-0.6c0-1.3-0.9-2.3-2.1-2.6c-0.2,0-0.3-0.1-0.5-0.1c-0.4,0-0.7,0.1-1,0.2c-0.9,0.4-1.6,1.3-1.6,2.4
			c0,1.4-1.2,2.6-2.6,2.6c-0.4,0-0.7-0.1-1-0.2c-0.9-0.4-1.6-1.3-1.6-2.4c0-1.3-0.9-2.3-2.1-2.6c-0.2,0-0.3-0.1-0.5-0.1
			c-0.4,0-0.7,0.1-1,0.2c-0.9,0.4-1.6,1.3-1.6,2.4c0,0.4-0.1,0.7-0.2,1c-0.4,0.9-1.3,1.6-2.4,1.6c-1.1,0-2.1-0.7-2.5-1.8
			c-0.1-0.3-0.2-0.6-0.2-0.9c0-1.3-0.9-2.3-2.1-2.6c-0.2,0-0.3-0.1-0.5-0.1c-1.4,0-2.6,1.2-2.6,2.6c0,0.2,0,0.3,0,0.4
			c0,0,0,0.1,0,0.1c0,0.1-0.1,0.2-0.1,0.3c0,0.1,0,0.1-0.1,0.2c0,0.1-0.1,0.2-0.1,0.2c0,0.1-0.1,0.2-0.1,0.2
			c-0.1,0.1-0.1,0.2-0.2,0.2c-0.1,0.1-0.1,0.1-0.2,0.2c-0.5,0.4-1.1,0.7-1.8,0.7c-1.4,0-2.6-1.2-2.6-2.6c0-1.5-1.2-2.6-2.6-2.6
			c-1.4,0-2.6,1.2-2.6,2.6c0,1.4-1.2,2.6-2.6,2.6c-1.4,0-2.6-1.2-2.6-2.6c0-1.5-1.2-2.6-2.6-2.6s-2.6,1.2-2.6,2.6
			c0,1.4-1.2,2.6-2.6,2.6c-1.4,0-2.6-1.2-2.6-2.6c0-1.5-1.2-2.6-2.6-2.6c-1.5,0-2.6,1.2-2.6,2.6c0,1.4-1.2,2.6-2.6,2.6
			c-1.4,0-2.6-1.2-2.6-2.6c0-1.5-1.2-2.6-2.6-2.6c-1.5,0-2.6,1.2-2.6,2.6c0,1.4-1.2,2.6-2.6,2.6c-1.5,0-2.6-1.2-2.6-2.6
			c0-1.5-1.2-2.6-2.6-2.6c-1.4,0-2.6,1.2-2.6,2.6c0,1.4-1.2,2.6-2.6,2.6c-1.5,0-2.6-1.2-2.6-2.6c0-1.5-1.2-2.6-2.6-2.6
			c-1.5,0-2.6,1.2-2.6,2.6c0,1.4-1.2,2.6-2.6,2.6c-1.5,0-2.6-1.2-2.6-2.6c0-1.5-1.2-2.6-2.6-2.6c-1.5,0-2.6,1.2-2.6,2.6
			c0,1.4-1.2,2.6-2.6,2.6c-1.5,0-2.6-1.2-2.6-2.6c0-1.5-1.2-2.6-2.6-2.6c-1.5,0-2.6,1.2-2.6,2.6c0,1.4-1.2,2.6-2.6,2.6
			c-0.7,0-1.3-0.3-1.7-0.7c-0.1-0.1-0.2-0.2-0.2-0.3c0-0.1-0.1-0.1-0.1-0.2c0,0-0.1-0.1-0.1-0.1c0,0,0,0,0,0
			c-0.1-0.2-0.2-0.3-0.2-0.5c0,0,0,0,0,0c-0.1-0.3-0.1-0.6-0.1-0.8c0-0.4-0.1-0.7-0.2-1c-0.1-0.2-0.1-0.3-0.2-0.4c0,0,0,0,0,0
			c0-0.1-0.1-0.1-0.1-0.2c0,0-0.1-0.1-0.1-0.1c-0.5-0.5-1.1-0.8-1.8-0.8c0,0-0.1,0-0.1,0l0,0h0c-0.7,0-1.4,0.3-1.9,0.8
			c-0.5,0.5-0.8,1.1-0.8,1.9c0,0.2,0,0.4-0.1,0.5c-0.2,1.2-1.3,2.1-2.6,2.1c-1.3,0-2.3-0.9-2.6-2.1c0-0.2-0.1-0.3-0.1-0.5
			c0-0.5-0.2-1-0.4-1.5c-0.5-0.7-1.3-1.2-2.2-1.2l0,0h0c-1.3,0-2.3,0.9-2.6,2.1c0,0.2-0.1,0.3-0.1,0.5c0,0.2,0,0.4-0.1,0.5
			c0,0,0,0,0,0c0,0.1,0,0.1-0.1,0.2c0,0.1-0.1,0.2-0.1,0.3c0,0.1-0.1,0.2-0.1,0.2c0,0.1-0.1,0.2-0.2,0.2c0,0,0,0,0,0c0,0,0,0,0,0.1
			c-0.1,0.1-0.2,0.3-0.4,0.4c-0.2,0.2-0.5,0.3-0.8,0.4C6,115.1,6.3,114.4,6.6,113.8z M133.6,124.5H12.8c-2.5,0-4.8-1.3-6.1-3.5
			c0.8-0.2,1.6-0.5,2.2-0.9c0.1-0.1,0.2-0.1,0.3-0.2c0.1-0.1,0.2-0.2,0.3-0.2c0,0,0,0,0,0c0,0,0,0,0,0c0.1-0.1,0.2-0.1,0.3-0.2
			c0.1-0.1,0.2-0.2,0.3-0.3c1.4,1.3,3.2,2,5.2,2c0,0,0,0,0,0s0,0,0,0c2,0,3.8-0.8,5.2-2c0,0,0,0,0,0c0.1,0.1,0.2,0.2,0.3,0.3
			c0,0,0,0,0,0c0,0,0.1,0,0.1,0.1c1.3,1,3,1.6,4.8,1.6c2,0,3.8-0.8,5.2-2c1.4,1.3,3.2,2,5.3,2c2,0,3.8-0.8,5.2-2
			c1.4,1.3,3.2,2,5.3,2c2,0,3.8-0.8,5.2-2c1.4,1.3,3.2,2,5.3,2s3.8-0.8,5.2-2c1.4,1.3,3.2,2,5.3,2s3.8-0.8,5.3-2
			c1.4,1.3,3.2,2,5.2,2s3.8-0.8,5.3-2c1.4,1.3,3.2,2,5.2,2c2,0,3.8-0.8,5.3-2c1.4,1.3,3.2,2,5.2,2c2,0,3.9-0.8,5.3-2
			c1.4,1.3,3.2,2,5.2,2c1.6,0,3-0.5,4.2-1.2c0,0,0,0,0,0c0.1-0.1,0.2-0.2,0.4-0.2c0,0,0,0,0.1,0c0,0,0.1,0,0.1-0.1
			c0.1,0,0.1-0.1,0.2-0.1c0.1-0.1,0.2-0.2,0.3-0.3c0.2,0.2,0.4,0.3,0.5,0.4c1.3,1,2.9,1.6,4.7,1.6c0,0,0,0,0,0s0,0,0,0
			c1.8,0,3.4-0.6,4.7-1.6c0.2-0.1,0.4-0.3,0.5-0.4c1.4,1.3,3.2,2,5.3,2c0.5,0,1,0,1.5-0.1c1.4-0.3,2.7-0.9,3.8-1.9
			c0.1,0.1,0.2,0.2,0.3,0.3c0.1,0.1,0.2,0.1,0.2,0.2c0,0,0.1,0.1,0.1,0.1c0.1,0.1,0.2,0.1,0.3,0.2c0.8,0.5,1.7,0.9,2.6,1.1
			C138.4,123.2,136.1,124.5,133.6,124.5z"/>
		<path class="st1" d="M62.7,88.8c1.4,0,2.6-1.2,2.6-2.6v-6.3l7.9-7.9l7.9,7.9v6.3c0,1.4,1.2,2.6,2.6,2.6c1.4,0,2.6-1.2,2.6-2.6
			v-4.7H102v4.7c0,1.4,1.2,2.6,2.6,2.6c1.4,0,2.6-1.2,2.6-2.6v-7.3c0-0.7-0.3-1.4-0.8-1.9L96,66.5c-0.5-0.5-1.2-0.8-1.9-0.8h-21
			c-0.7,0-1.3,0.3-1.9,0.8L60.8,77c-0.5,0.5-0.8,1.2-0.8,1.9v7.3C60.1,87.7,61.2,88.8,62.7,88.8z M93.1,71l5.2,5.2H84.8L79.5,71
			H93.1z"/>
		<path class="st1" d="M73.2,81.5c-1.4,0-2.6,1.2-2.6,2.6v2.1c0,1.4,1.2,2.6,2.6,2.6c1.4,0,2.6-1.2,2.6-2.6v-2.1
			C75.8,82.7,74.6,81.5,73.2,81.5z"/>
		<path class="st1" d="M44.3,81v5.2c0,1.4,1.2,2.6,2.6,2.6c1.4,0,2.6-1.2,2.6-2.6V81c3.1-1.1,5.2-4,5.2-7.4V63.1
			c0-4.3-3.5-7.9-7.9-7.9c-4.3,0-7.9,3.5-7.9,7.9v10.5C39.1,77,41.3,79.9,44.3,81z M44.3,63.1c0-1.4,1.2-2.6,2.6-2.6
			c1.4,0,2.6,1.2,2.6,2.6v10.5c0,1.4-1.2,2.6-2.6,2.6c-1.4,0-2.6-1.2-2.6-2.6V63.1z"/>
	</g>
</g>
</svg>
