<?xml version="1.0" encoding="utf-8"?>
<!-- Generator: Adobe Illustrator 19.2.1, SVG Export Plug-In . SVG Version: 6.00 Build 0)  -->
<svg version="1.1" id="Camada_1" xmlns="http://www.w3.org/2000/svg" xmlns:xlink="http://www.w3.org/1999/xlink" x="0px" y="0px"
	 viewBox="0 0 146.3 130.1" style="enable-background:new 0 0 146.3 130.1;" xml:space="preserve">
<style type="text/css">
	.st0{fill:rgba(235, 83, 62, 0.5);}
	.st1{fill:#eb533e;}
</style>
<g>
	<path class="st0" d="M144.8,111.4c-0.1-0.1-0.1-0.3-0.2-0.4L84.2,6.4c-2.3-4-6.4-6.4-11-6.4c-4.6,0-8.7,2.4-11.1,6.4L1.7,111
		c-0.1,0.1-0.1,0.3-0.2,0.4c-1.4,2.6-1.8,5.4-1.3,8.1c0.3,1.5,0.8,2.9,1.5,4.2c2.3,4,6.4,6.4,11,6.4h120.8c4.6,0,8.7-2.4,11.1-6.4
		c0.8-1.4,1.3-2.8,1.5-4.3C146.6,116.8,146.2,113.9,144.8,111.4z"/>
	<path class="st1" d="M144.8,111.4c-0.1-0.1-0.1-0.3-0.2-0.4L84.2,6.4c-2.3-4-6.4-6.4-11-6.4s-8.7,2.4-11,6.4L1.7,111
		c-0.1,0.1-0.1,0.3-0.2,0.4c-1.4,2.6-1.8,5.4-1.3,8.1c0.2,1.5,0.8,2.9,1.5,4.2c2.3,4,6.4,6.4,11,6.4h120.8c4.6,0,8.7-2.4,11.1-6.4
		c0.8-1.3,1.3-2.8,1.5-4.2C146.6,116.8,146.2,113.9,144.8,111.4z M18.5,93.3L18.5,93.3c0.8-0.4,1.6-0.8,2.2-1.4c1.4,1.3,3.2,2,5.3,2
		c2,0,3.8-0.8,5.2-2c1.4,1.3,3.2,2,5.3,2c2,0,3.8-0.8,5.2-2c1.4,1.3,3.2,2,5.3,2c2,0,3.8-0.8,5.2-2c1.4,1.3,3.2,2,5.3,2
		s3.8-0.8,5.2-2c1.4,1.3,3.2,2,5.3,2c2,0,3.8-0.8,5.3-2c1.4,1.3,3.2,2,5.2,2c2,0,3.8-0.8,5.3-2c1.4,1.3,3.2,2,5.2,2
		c2,0,3.8-0.8,5.3-2c1.4,1.3,3.2,2,5.2,2c2,0,3.9-0.8,5.3-2c1.4,1.3,3.2,2,5.2,2c2,0,3.9-0.8,5.3-2c1.4,1.3,3.2,2,5.3,2
		c2,0,3.8-0.8,5.2-2c0.6,0.6,1.4,1.1,2.2,1.4l0,0l4.8,8.3c-0.5,0.4-1.1,0.7-1.8,0.7c-1.4,0-2.6-1.2-2.6-2.6c0-1.4-1.2-2.6-2.6-2.6
		s-2.6,1.2-2.6,2.6c0,1.5-1.2,2.6-2.6,2.6c-1.4,0-2.6-1.2-2.6-2.6c0-1.4-1.2-2.6-2.6-2.6s-2.6,1.2-2.6,2.6c0,1.5-1.2,2.6-2.6,2.6
		c-1.4,0-2.6-1.2-2.6-2.6c0-1.4-1.2-2.6-2.6-2.6s-2.6,1.2-2.6,2.6c0,1.5-1.2,2.6-2.6,2.6c-1.4,0-2.6-1.2-2.6-2.6
		c0-1.4-1.2-2.6-2.6-2.6s-2.6,1.2-2.6,2.6c0,1.5-1.2,2.6-2.6,2.6c-1.4,0-2.6-1.2-2.6-2.6c0-1.4-1.2-2.6-2.6-2.6
		c-1.5,0-2.6,1.2-2.6,2.6c0,1.5-1.2,2.6-2.6,2.6c-1.4,0-2.6-1.2-2.6-2.6c0-1.4-1.2-2.6-2.6-2.6c-1.5,0-2.6,1.2-2.6,2.6
		c0,1.5-1.2,2.6-2.6,2.6c-1.5,0-2.6-1.2-2.6-2.6c0-1.4-1.2-2.6-2.6-2.6c-1.4,0-2.6,1.2-2.6,2.6c0,1.5-1.2,2.6-2.6,2.6
		c-1.5,0-2.6-1.2-2.6-2.6c0-1.4-1.2-2.6-2.6-2.6c-1.5,0-2.6,1.2-2.6,2.6c0,1.5-1.2,2.6-2.6,2.6c-1.5,0-2.6-1.2-2.6-2.6
		c0-1.4-1.2-2.6-2.6-2.6c-1.5,0-2.6,1.2-2.6,2.6c0,1.5-1.2,2.6-2.6,2.6c-1.5,0-2.6-1.2-2.6-2.6c0-1.4-1.2-2.6-2.6-2.6
		c-1.5,0-2.6,1.2-2.6,2.6c0,1.5-1.2,2.6-2.6,2.6c-1.4,0-2.6-1.2-2.6-2.6c0-1.4-1.2-2.6-2.6-2.6c-1.4,0-2.6,1.2-2.6,2.6
		c0,1.5-1.2,2.6-2.6,2.6c-0.7,0-1.3-0.3-1.8-0.7L18.5,93.3z M46.9,76.2c-1.4,0-2.6-1.2-2.6-2.6V63.1c0-1.4,1.2-2.6,2.6-2.6
		s2.6,1.2,2.6,2.6v10.5C49.6,75.1,48.4,76.2,46.9,76.2z M102,86c0,1.4-1.2,2.6-2.6,2.6c-1.4,0-2.6-1.2-2.6-2.6
		c0-1.5-1.2-2.6-2.6-2.6c-1.5,0-2.6,1.2-2.6,2.6c0,1.4-1.2,2.6-2.6,2.6c-1.4,0-2.6-1.2-2.6-2.6v-4.6H102V86z M84.8,76.2L79.5,71
		h13.6l5.2,5.2H84.8z M81,79.9v5.9c0,0.1,0,0.1,0,0.2c0,1.4-1.2,2.6-2.6,2.6c-1.4,0-2.6-1.2-2.6-2.6v-1.9c0-1.4-1.2-2.6-2.6-2.6
		c-1.4,0-2.6,1.2-2.6,2.6v1.8c0,0.1,0,0.1,0,0.2c0,1.4-1.2,2.6-2.6,2.6c-1.4,0-2.6-1.2-2.6-2.6v-6.1l7.9-7.9L81,79.9z M67,9.2
		c1.3-2.2,3.6-3.5,6.1-3.5S78,7,79.3,9.2l43.9,75.9l0,0c-0.1,0.3-0.2,0.6-0.2,0.9c0,1.4-1.2,2.6-2.6,2.6c-1.5,0-2.6-1.2-2.6-2.6
		c0-1.5-1.2-2.6-2.6-2.6c-1.5,0-2.6,1.2-2.6,2.6c0,1.4-1.2,2.6-2.6,2.6c-1.4,0-2.6-1.1-2.6-2.6v-7.2c0-0.7-0.3-1.4-0.8-1.9L96,66.5
		c-0.5-0.5-1.2-0.8-1.9-0.8h-21c-0.7,0-1.3,0.3-1.9,0.8L60.8,77c-0.5,0.5-0.8,1.2-0.8,1.9V86c0,0,0,0,0,0c0,1.4-1.2,2.6-2.6,2.6
		c-1.5,0-2.6-1.2-2.6-2.6c0-1.5-1.2-2.6-2.6-2.6c-1.4,0-2.6,1.2-2.6,2.6v-5c3.1-1.1,5.2-4,5.2-7.4V63.1c0-4.3-3.5-7.9-7.9-7.9
		c-4.3,0-7.9,3.5-7.9,7.9v10.5c0,3.4,2.2,6.3,5.2,7.4v5c0-1.4-1.2-2.6-2.6-2.6c-1.5,0-2.6,1.2-2.6,2.6c0,1.4-1.2,2.6-2.6,2.6
		c-1.5,0-2.6-1.2-2.6-2.6c0-1.5-1.2-2.6-2.6-2.6s-2.6,1.2-2.6,2.6c0,1.4-1.2,2.6-2.6,2.6c-1.5,0-2.6-1.2-2.6-2.6
		c0-0.3-0.1-0.6-0.2-0.8l0,0L67,9.2z M6.6,113.8l4.4-7.7h0c1.3,0.9,2.8,1.4,4.4,1.4c2,0,3.9-0.8,5.3-2c1.4,1.3,3.2,2,5.3,2
		c2,0,3.8-0.8,5.2-2c1.4,1.3,3.2,2,5.3,2c2,0,3.8-0.8,5.2-2c1.4,1.3,3.2,2,5.3,2c2,0,3.8-0.8,5.2-2c1.4,1.3,3.2,2,5.3,2
		s3.8-0.8,5.2-2c1.4,1.3,3.2,2,5.3,2s3.8-0.8,5.3-2c1.4,1.3,3.2,2,5.2,2s3.8-0.8,5.3-2c1.4,1.3,3.2,2,5.2,2c2,0,3.8-0.8,5.3-2
		c1.4,1.3,3.2,2,5.2,2c2,0,3.9-0.8,5.3-2c1.4,1.3,3.2,2,5.2,2c2,0,3.9-0.8,5.3-2c1.4,1.3,3.2,2,5.3,2c2,0,3.8-0.8,5.2-2
		c1.4,1.3,3.2,2,5.3,2c1.6,0,3.1-0.5,4.4-1.4l0,0l4.4,7.7c0.3,0.6,0.6,1.3,0.8,1.9c-0.3-0.1-0.5-0.2-0.8-0.4l0,0
		c-0.1-0.1-0.2-0.2-0.3-0.3c0,0,0,0,0,0c0,0-0.1-0.1-0.1-0.1c-0.1-0.1-0.1-0.2-0.2-0.3c0,0,0-0.1-0.1-0.1c0-0.1-0.1-0.2-0.1-0.3
		c0-0.1,0-0.1-0.1-0.2c0,0,0,0,0-0.1c0-0.2-0.1-0.4-0.1-0.5c0-1.1-0.7-2-1.6-2.4c-0.3-0.1-0.7-0.2-1-0.2c-1.5,0-2.6,1.2-2.6,2.6
		c0,1.1-0.7,2-1.6,2.4c-0.3,0.1-0.7,0.2-1,0.2c-1.4,0-2.6-1.2-2.6-2.6c0-1.1-0.7-2-1.6-2.4c-0.3-0.1-0.7-0.2-1-0.2
		c-1.5,0-2.6,1.2-2.6,2.6c0,1.1-0.7,2-1.6,2.4c-0.3,0.1-0.7,0.2-1,0.2c-1.4,0-2.6-1.2-2.6-2.6c0-1.1-0.7-2-1.6-2.4
		c-0.3-0.1-0.7-0.2-1-0.2c-1.5,0-2.6,1.2-2.6,2.6c0,1.1-0.7,2-1.6,2.4c-0.3,0.1-0.7,0.2-1,0.2c-1.4,0-2.6-1.2-2.6-2.6
		c0-1.1-0.7-2-1.6-2.4c-0.3-0.1-0.7-0.2-1-0.2c-1.1,0-2,0.7-2.4,1.6c-0.1,0.3-0.2,0.7-0.2,1c0,0.2,0,0.3,0,0.4c0,0,0,0.1,0,0.1
		c0,0.1,0,0.1-0.1,0.2c0,0.1-0.1,0.2-0.1,0.3c0,0.1-0.1,0.1-0.1,0.2c-0.1,0.1-0.1,0.2-0.2,0.3c-0.1,0.1-0.1,0.2-0.2,0.2
		c-0.1,0.1-0.1,0.1-0.2,0.2c-0.5,0.4-1.1,0.7-1.8,0.7c-1.4,0-2.6-1.2-2.6-2.6c0-1.5-1.2-2.6-2.6-2.6s-2.6,1.2-2.6,2.6
		c0,1.4-1.2,2.6-2.6,2.6c-1.4,0-2.6-1.2-2.6-2.6c0-1.5-1.2-2.6-2.6-2.6c-1.5,0-2.6,1.2-2.6,2.6c0,1.4-1.2,2.6-2.6,2.6
		c-1.4,0-2.6-1.2-2.6-2.6c0-1.5-1.2-2.6-2.6-2.6c-1.5,0-2.6,1.2-2.6,2.6c0,1.4-1.2,2.6-2.6,2.6c-0.7,0-1.4-0.3-1.8-0.7c0,0,0,0,0,0
		c0,0,0,0,0-0.1c-0.1-0.1-0.2-0.2-0.2-0.3c0,0,0,0,0-0.1c0,0,0-0.1-0.1-0.1c-0.1-0.1-0.1-0.2-0.2-0.3c0-0.1-0.1-0.2-0.1-0.3
		c0,0,0-0.1,0-0.1c0,0,0-0.1,0-0.1c0-0.1,0-0.3,0-0.4c0-0.5-0.2-1-0.4-1.5c-0.5-0.7-1.3-1.2-2.2-1.2l0,0h0c-1.3,0-2.3,0.9-2.6,2.1
		c0,0.2-0.1,0.3-0.1,0.5c0,0.9-0.5,1.7-1.2,2.2c-0.4,0.3-0.9,0.4-1.5,0.4c-0.6,0-1.1-0.2-1.6-0.6c-0.1-0.1-0.2-0.1-0.3-0.2
		c-0.1-0.1-0.1-0.1-0.2-0.2c-0.4-0.4-0.6-1-0.6-1.6c0-1.5-1.2-2.6-2.6-2.6l0,0h0c-1.3,0-2.3,0.9-2.6,2.1c0,0.2-0.1,0.3-0.1,0.5
		c0,0.9-0.5,1.7-1.2,2.2c-0.4,0.3-0.9,0.4-1.5,0.4c-0.6,0-1.1-0.2-1.5-0.5c-0.1-0.1-0.2-0.2-0.3-0.3C45,115.1,45,115,45,115
		c-0.4-0.5-0.6-1-0.6-1.7c0-1.2-0.8-2.2-2-2.5c-0.2-0.1-0.4-0.1-0.7-0.1c0,0,0,0,0,0l0,0h0c-1.3,0-2.3,0.9-2.6,2.1
		c0,0.2-0.1,0.3-0.1,0.5c0,0.9-0.5,1.7-1.2,2.2c-0.4,0.3-0.9,0.4-1.5,0.4c-0.9,0-1.7-0.5-2.2-1.2c-0.3-0.4-0.4-0.9-0.4-1.5
		c0-0.5-0.2-1-0.4-1.5c-0.5-0.7-1.3-1.2-2.2-1.2l0,0h0c-1.3,0-2.3,0.9-2.6,2.1c0,0.2-0.1,0.3-0.1,0.5c0,1.4-1.2,2.6-2.6,2.6
		c-0.9,0-1.7-0.5-2.2-1.2c-0.3-0.4-0.4-0.9-0.4-1.5c0-0.7-0.3-1.4-0.8-1.9c-0.5-0.5-1.1-0.8-1.9-0.8c-1.3,0-2.3,0.9-2.6,2.1
		c0,0.2-0.1,0.3-0.1,0.5c0,0.9-0.5,1.7-1.2,2.2c-0.4,0.3-0.9,0.4-1.5,0.4c-1.4,0-2.6-1.2-2.6-2.6c0-0.2,0-0.4-0.1-0.5
		c-0.2-1.2-1.3-2.1-2.6-2.1h0l0,0c-0.2,0-0.4,0-0.5,0.1c-0.6,0.1-1.1,0.5-1.5,0.9c-0.2,0.2-0.3,0.4-0.4,0.6c-0.1,0.3-0.2,0.6-0.2,1
		c0,0,0,0.1,0,0.1c0,0.1,0,0.3,0,0.4c0,0.1,0,0.1-0.1,0.2c0,0.1,0,0.1-0.1,0.1c-0.1,0.2-0.1,0.3-0.2,0.5c0,0,0,0.1-0.1,0.1
		c-0.1,0.1-0.2,0.2-0.2,0.3c-0.1,0.1-0.2,0.2-0.2,0.2c-0.2,0.2-0.5,0.3-0.8,0.4C6,115.1,6.3,114.4,6.6,113.8z M133.6,124.5H12.8
		c-2.5,0-4.8-1.3-6.1-3.5c0.8-0.2,1.5-0.5,2.2-0.9c0.2-0.1,0.5-0.3,0.7-0.4c0,0,0,0,0,0c0.1-0.1,0.2-0.1,0.3-0.2
		c0.1-0.1,0.2-0.2,0.3-0.3c0,0,0,0,0,0c1.4,1.3,3.2,2,5.2,2c0.3,0,0.5,0,0.7,0c1-0.1,1.9-0.4,2.8-0.8c0.6-0.3,1.2-0.7,1.7-1.2
		c0.5,0.5,1.1,0.9,1.7,1.2c0.8,0.4,1.8,0.7,2.8,0.8c0.2,0,0.5,0,0.7,0c2,0,3.8-0.8,5.2-2c1.4,1.3,3.2,2,5.2,2h0l0,0
		c2,0,3.8-0.8,5.2-2c1.4,1.3,3.2,2,5.2,2h0l0,0c2,0,3.8-0.8,5.2-2c1.4,1.3,3.2,2,5.2,2h0l0,0c2,0,3.8-0.8,5.2-2
		c0.1,0.1,0.2,0.2,0.3,0.3c0,0,0.1,0.1,0.1,0.1c1.3,1,3,1.6,4.8,1.6c2,0,3.8-0.8,5.3-2c1.4,1.3,3.2,2,5.2,2s3.8-0.8,5.3-2
		c1.4,1.3,3.2,2,5.2,2c2,0,3.8-0.8,5.3-2c1.4,1.3,3.2,2,5.2,2c1.6,0,3-0.5,4.2-1.2c0,0,0,0,0,0c0.1-0.1,0.2-0.2,0.3-0.2
		c0,0,0,0,0.1,0c0,0,0.1,0,0.1-0.1c0.1,0,0.1-0.1,0.2-0.1c0.1-0.1,0.2-0.2,0.3-0.3c1.4,1.3,3.2,2,5.2,2c0.8,0,1.5-0.1,2.2-0.3
		c0.5-0.1,0.9-0.3,1.3-0.5c0.2-0.1,0.4-0.2,0.6-0.3c0.4-0.2,0.8-0.5,1.1-0.8c1.4,1.3,3.2,2,5.3,2c1,0,2-0.2,2.9-0.5
		c0.7-0.3,1.3-0.6,1.8-1c0.2-0.1,0.4-0.3,0.5-0.4c0.2,0.2,0.4,0.3,0.5,0.4c0.9,0.7,2,1.2,3.2,1.4c0.5,0.1,1,0.1,1.5,0.1
		c1,0,2-0.2,2.9-0.5c0.7-0.3,1.3-0.6,1.8-1c0.2-0.1,0.4-0.3,0.5-0.4c0.1,0.1,0.2,0.2,0.3,0.3c0.1,0.1,0.2,0.1,0.3,0.2
		c0,0,0.1,0.1,0.1,0.1c0.1,0.1,0.2,0.1,0.3,0.2c0.1,0.1,0.2,0.1,0.3,0.2c0.7,0.4,1.4,0.7,2.2,0.9
		C138.4,123.2,136.1,124.5,133.6,124.5z"/>
</g>
</svg>
