<?xml version="1.0" encoding="utf-8"?>
<!-- Generator: Adobe Illustrator 19.2.1, SVG Export Plug-In . SVG Version: 6.00 Build 0)  -->
<svg version="1.1" id="Camada_1" xmlns="http://www.w3.org/2000/svg" xmlns:xlink="http://www.w3.org/1999/xlink" x="0px" y="0px"
	 viewBox="0 0 140.1 140" style="enable-background:new 0 0 140.1 140;" xml:space="preserve">
<style type="text/css">
	.st0{fill:#FFFFFF;}
	.st1{fill:#009BDB;}
</style>
<g>
	<path class="st0" d="M70,0C31.4,0,0,31.4,0,70c0,21.6,9.9,41,25.4,53.9c3.1,2.6,6.4,4.9,9.9,6.9c10.2,5.9,22.1,9.2,34.7,9.2
		c12.6,0,24.5-3.4,34.7-9.2c0.2,0.1,0.4,0.1,0.5,0.1c-0.2,0-0.4-0.1-0.5-0.1c3.5-2,6.8-4.3,9.9-6.9c0,0,0,0,0,0
		c15.5-12.8,25.3-32.2,25.3-53.9C140.1,31.4,108.6,0,70,0z"/>
	<g>
		<path class="st1" d="M70,0C31.4,0,0,31.4,0,70c0,21.6,9.9,41,25.4,53.9c3.1,2.6,6.4,4.9,9.9,6.9c10.2,5.9,22.1,9.2,34.7,9.2
			c12.6,0,24.5-3.4,34.7-9.2c0.2,0.1,0.4,0.1,0.5,0.1c-0.2,0-0.4-0.1-0.5-0.1c3.5-2,6.8-4.3,9.9-6.9c0,0,0,0,0,0
			c15.5-12.8,25.3-32.2,25.3-53.9C140.1,31.4,108.6,0,70,0z M70,134.4c-8,0-15.6-1.5-22.7-4.1c0.6-0.3,1.2-0.7,1.7-1.2
			c1.4,1.3,3.2,2,5.3,2s3.9-0.8,5.2-2c1.4,1.3,3.2,2,5.3,2s3.9-0.8,5.3-2c1.4,1.3,3.2,2,5.2,2s3.9-0.8,5.3-2c1.4,1.3,3.2,2,5.2,2
			s3.8-0.8,5.2-2c0.5,0.5,1.1,0.9,1.7,1.2C85.7,132.9,78,134.4,70,134.4z M104.4,124.4c-0.2-0.4-0.3-0.8-0.3-1.2
			c0-1.4-1.1-2.5-2.4-2.6c-0.1,0-0.2,0-0.3,0c-0.1,0-0.2,0-0.2,0c-1.3,0.1-2.4,1.2-2.4,2.6c0,1.4-1,2.5-2.4,2.6c-0.1,0-0.2,0-0.3,0
			c-0.1,0-0.2,0-0.2,0c-1.3-0.1-2.3-1.3-2.3-2.6c0-1.4-1.1-2.5-2.4-2.6c-0.1,0-0.2,0-0.3,0c-0.1,0-0.1,0-0.2,0
			c-1.3,0.1-2.4,1.2-2.4,2.6c0,0.8-0.4,1.5-1,2c0,0,0,0,0,0c-0.5,0.4-1,0.6-1.6,0.6c-1.4,0-2.6-1.2-2.6-2.6c0-1.5-1.2-2.6-2.6-2.6
			s-2.6,1.2-2.6,2.6c0,1.4-1.2,2.6-2.6,2.6c-1.4,0-2.6-1.2-2.6-2.6c0-1.5-1.2-2.6-2.6-2.6c-1.4,0-2.6,1.2-2.6,2.6
			c0,1.4-1.2,2.6-2.6,2.6s-2.6-1.2-2.6-2.6c0-1.5-1.2-2.6-2.6-2.6c-1.4,0-2.6,1.2-2.6,2.6c0,1.4-1.2,2.6-2.6,2.6
			c-1.4,0-2.6-1.2-2.6-2.6c0-1.5-1.2-2.6-2.6-2.6s-2.6,1.2-2.6,2.6c0,1.4-1.2,2.6-2.6,2.6c-1.4,0-2.6-1.2-2.6-2.6
			c0-1.5-1.2-2.6-2.6-2.6s-2.6,1.2-2.6,2.6c0,0.4-0.1,0.8-0.3,1.2c-18-11.4-30-31.5-30-54.4C5.7,34.5,34.5,5.7,70,5.7
			c35.5,0,64.4,28.9,64.4,64.4C134.4,92.9,122.4,113,104.4,124.4z"/>
		<path class="st1" d="M92.9,76.4c-0.5-0.5-1.2-0.8-1.9-0.8H70c-0.7,0-1.3,0.3-1.9,0.8L57.7,86.9c-0.5,0.5-0.8,1.2-0.8,1.9v7.3v11.6
			c0,1.4,1.2,2.6,2.6,2.6h42c1.4,0,2.6-1.2,2.6-2.6V96.1v-7.3c0-0.7-0.3-1.4-0.8-1.9L92.9,76.4z M89.9,80.9l5.2,5.2H81.6l-5.2-5.2
			H89.9z M62.2,89.9L70,82l7.9,7.9v6.3v9H62.2v-9V89.9z M98.9,105.1H83.1v-9v-4.7h15.7v4.7V105.1z"/>
		<path class="st1" d="M70,98.7c1.4,0,2.6-1.2,2.6-2.6V94c0-1.4-1.2-2.6-2.6-2.6c-1.4,0-2.6,1.2-2.6,2.6v2.1
			C67.4,97.6,68.6,98.7,70,98.7z"/>
		<path class="st1" d="M43.8,65.2c-4.3,0-7.9,3.5-7.9,7.9v10.5c0,3.4,2.2,6.3,5.2,7.4v5.2v11.6c0,1.4,1.2,2.6,2.6,2.6
			c1.4,0,2.6-1.2,2.6-2.6V96.1v-5.2c3.1-1.1,5.2-4,5.2-7.4V73C51.7,68.7,48.1,65.2,43.8,65.2z M46.4,83.5c0,1.4-1.2,2.6-2.6,2.6
			s-2.6-1.2-2.6-2.6V73c0-1.4,1.2-2.6,2.6-2.6s2.6,1.2,2.6,2.6V83.5z"/>
	</g>
</g>
</svg>
